<?xml version="1.0" encoding="utf-8"?>
<!-- Generator: Adobe Illustrator 24.3.0, SVG Export Plug-In . SVG Version: 6.00 Build 0)  -->
<svg version="1.1" xmlns="http://www.w3.org/2000/svg" xmlns:xlink="http://www.w3.org/1999/xlink" x="0px" y="0px"
	 viewBox="0 0 192 144" style="enable-background:new 0 0 192 144;" xml:space="preserve">
<style type="text/css">
	.st0{enable-background:new    ;}
	.st1{fill:#FFFFFF;}
	.st2{opacity:0.502;}
	.st3{fill:#7D00CC;}
	.st4{display:none;enable-background:new    ;}
	.st5{display:inline;}
	.st6{display:none;}
	.st7{display:inline;opacity:0.502;}
</style>
<g id="Rectangle_1_1_" class="st0">
	<g id="Rectangle_1">
		<g>
			<rect width="192" height="144"/>
		</g>
	</g>
</g>
<g id="Group_1_1_">
	<g id="Shape_1">
		<g>
			<path class="st1" d="M42.62,71.58l-3.16-2.48c0,0-1.89-1.84,0.5-3.9l3.53-2.78c0,0-0.96-1.17-1.55-0.8l-5.57,4.33
				c0,0-1.85,1.2-0.12,3.47c0,0,0.18,0.5,4.64,3.71c0,0,1.39,0.92,0.5,1.61l-8.91,6.99c0,0,0.75,0.71,1.3,0.74l9.16-7.24
				C42.93,75.23,44.81,73.53,42.62,71.58z"/>
		</g>
	</g>
	<g id="Shape_2" class="st2">
		<g>
			<path class="st1" d="M43.67,76.29l-7.3,5.76c0,0,0.89,0.78,1.67,0.37l5.14-4.02C43.18,78.39,43.8,77.77,43.67,76.29z"/>
		</g>
	</g>
	<g id="Shape_3" class="st2">
		<g>
			<path class="st1" d="M38.04,72.2l-4.58-3.71c-1.12-1.06,0.12-2.23,0.12-2.23l5.01-3.9c-1.03-1.27-1.86-0.74-1.86-0.74l-5.63,4.52
				c-1.84,1.47,0.06,3.28,0.06,3.28l5.51,4.39c0.69,0.54,0.12,1.3,0.12,1.3l-4.46,3.59c-1.24,1.05-0.99,2.29-0.99,2.29l6.75-5.51
				C39.65,73.63,38.04,72.2,38.04,72.2z"/>
		</g>
	</g>
	<g id="Shape_4">
		<g>
			<path class="st1" d="M34.57,73.5l-2.23-1.73c-1.33-0.91-1.92-2.1-1.92-2.1c-0.38,1.74,0.99,2.91,0.99,2.91l2.04,1.67
				c0.91,0.63,0.06,1.79,0.06,1.79l-1.73,1.49c0.92-0.54,3.03-2.41,3.03-2.41C35.57,74.19,34.57,73.5,34.57,73.5z"/>
		</g>
	</g>
	<g id="hadow_1_">
		<g>
			<path class="st1" d="M48.68,67.54h1.9v10.8h-1.9V67.54z M49.7,72.06h8.67v1.67H49.7V72.06z M57.46,67.54h1.9v10.8h-1.9V67.54z"/>
			<path class="st1" d="M68.24,67.54l5.18,10.8h-2.03l-4.71-10.08h0.73l-4.71,10.08h-2.03l5.18-10.8H68.24z M63.22,75.86v-1.57h7.55
				v1.57H63.22z"/>
			<path class="st1" d="M79.61,67.54c1.23,0,2.31,0.23,3.23,0.68c0.93,0.45,1.65,1.08,2.17,1.89s0.78,1.75,0.78,2.83
				c0,1.08-0.26,2.02-0.78,2.83s-1.24,1.44-2.17,1.89c-0.93,0.45-2,0.68-3.23,0.68h-4.88v-10.8H79.61z M76.63,77.67l-1.05-1.01h4.16
				c0.83,0,1.55-0.16,2.17-0.47c0.62-0.31,1.1-0.75,1.44-1.31c0.34-0.56,0.51-1.21,0.51-1.95c0-0.75-0.17-1.4-0.51-1.96
				c-0.34-0.56-0.82-0.99-1.44-1.3s-1.34-0.47-2.17-0.47h-4.16l1.05-1.01V77.67z"/>
			<path class="st1" d="M93.25,78.54c-1.23,0-2.31-0.23-3.24-0.71s-1.66-1.13-2.17-1.97s-0.78-1.82-0.78-2.93
				c0-1.11,0.26-2.09,0.78-2.93c0.52-0.84,1.24-1.5,2.17-1.97s2.01-0.71,3.24-0.71c1.23,0,2.31,0.24,3.24,0.71s1.66,1.13,2.17,1.97
				c0.52,0.84,0.78,1.82,0.78,2.93c0,1.11-0.26,2.09-0.78,2.93c-0.52,0.84-1.24,1.5-2.17,1.97S94.48,78.54,93.25,78.54z
				 M93.25,76.84c0.87,0,1.63-0.16,2.26-0.47c0.63-0.32,1.13-0.77,1.48-1.35c0.35-0.59,0.53-1.28,0.53-2.07s-0.18-1.49-0.53-2.07
				c-0.35-0.59-0.84-1.04-1.48-1.35s-1.39-0.48-2.26-0.48c-0.86,0-1.62,0.16-2.25,0.48c-0.64,0.32-1.13,0.77-1.48,1.35
				c-0.35,0.59-0.53,1.28-0.53,2.07s0.18,1.49,0.53,2.07c0.35,0.58,0.84,1.04,1.48,1.35C91.63,76.68,92.38,76.84,93.25,76.84z"/>
			<path class="st1" d="M113.9,77.62h-0.72l3.31-10.08h1.99l-3.66,10.8h-2.42l-3.64-9.89h0.89l-3.64,9.89h-2.42l-3.66-10.8h2
				l3.3,10.08l-0.69-0.01l3.64-10.07h2.06L113.9,77.62z"/>
		</g>
	</g>
	<g id="L">
		<g>
			<path class="st3" d="M123.36,65.52h-2.4v2.64h2.4V65.52z M123.36,68.64h-2.4v9.6h4.56v-2.37h-2.16V68.64z M126,75.87v2.37h2.4
				v-2.37H126z"/>
		</g>
	</g>
	<g id="I">
		<g>
			<path class="st3" d="M130.8,65.52v2.64h7.44v-2.64H130.8z M130.8,78.48h7.44v-2.64h-7.44V78.48z M135.84,68.88h-2.64v2.88h2.64
				V68.88z M133.2,75.12h2.64v-2.88h-2.64V75.12z"/>
		</g>
	</g>
	<g id="N">
		<g>
			<path class="st3" d="M147.36,65.52v5.28h-2.64v2.4h2.64v5.04h2.4V65.52H147.36z M142.08,68.4v-2.88h-2.4v12.72h2.4V70.8h2.64
				v-2.4H142.08z"/>
		</g>
	</g>
	<g id="K">
		<g>
			<path class="st3" d="M153.84,70.58v-5.06h-2.4v12.72h2.4V73.2h2.64v-2.62H153.84z M159.12,65.54v2.62h2.64v-2.62H159.12z
				 M156.48,70.56h2.64v-2.4h-2.64V70.56z M159.12,75.6v-2.4h-2.64v2.4H159.12z M159.12,78.24h2.64v-2.62h-2.64V78.24z"/>
		</g>
	</g>
</g>
<g id="Rectangle_1_copy_3_1_" class="st4">
</g>
<g id="Group_1a_1_" class="st6">
	<g id="hadow" class="st5">
	</g>
</g>
<g id="Rectangle_1_copy_2_1_" class="st4">
</g>
<g id="Group_1c_1_" class="st6">
</g>
</svg>
